<?xml version="1.0" standalone="no"?>
<!DOCTYPE svg PUBLIC "-//W3C//DTD SVG 20010904//EN"
 "http://www.w3.org/TR/2001/REC-SVG-20010904/DTD/svg10.dtd">
<svg version="1.0" xmlns="http://www.w3.org/2000/svg"
 width="460.000000pt" height="460.000000pt" viewBox="0 0 460.000000 460.000000"
 preserveAspectRatio="xMidYMid meet">
<metadata>
Created by potrace 1.14, written by Peter Selinger 2001-2017
</metadata>
<g transform="translate(0.000000,460.000000) scale(0.100000,-0.100000)"
fill="#000000" stroke="none">
<path d="M0 2300 l0 -2300 1465 0 1465 0 0 59 c0 124 -9 151 -65 206 -29 27
-55 63 -59 78 -12 52 -213 239 -311 291 -67 35 -174 35 -340 1 -66 -14 -147
-25 -181 -25 -70 0 -63 -7 -115 135 -52 142 -115 254 -239 430 -39 55 -73 107
-77 115 -8 18 -128 184 -159 220 -59 67 -104 126 -104 136 0 6 14 31 31 55 84
118 172 179 260 179 l46 0 11 83 c6 45 14 108 18 140 l6 57 -46 50 c-38 40
-109 164 -129 223 -3 9 -10 8 -30 -2 -24 -13 -30 -11 -104 42 -109 77 -233
185 -233 202 0 9 10 15 25 15 31 0 32 11 4 36 -36 32 -46 65 -52 164 -3 52
-15 129 -26 170 -27 95 -38 280 -22 376 24 155 145 388 280 541 55 63 158 142
224 174 32 15 86 30 120 34 34 4 67 11 72 15 6 4 46 18 90 31 108 31 321 34
404 5 34 -12 87 -19 145 -21 75 -2 102 -7 151 -29 33 -15 67 -34 75 -41 8 -7
45 -15 82 -19 65 -6 76 -4 275 63 323 107 380 123 415 116 43 -10 85 -56 121
-134 44 -94 44 -174 -1 -251 -35 -62 -112 -147 -157 -175 -16 -11 -77 -38
-135 -61 l-105 -43 -2 -78 c-1 -43 -2 -89 -3 -103 0 -14 2 -41 6 -61 3 -22 1
-46 -6 -59 -11 -20 -7 -28 42 -77 29 -30 70 -63 90 -74 54 -28 105 -75 112
-104 8 -31 -13 -79 -53 -123 -43 -46 -45 -64 -17 -135 28 -69 32 -107 14 -136
-9 -14 -8 -23 5 -42 19 -26 23 -74 7 -84 -18 -11 -10 -95 15 -155 47 -111 25
-173 -80 -225 -57 -28 -68 -30 -212 -35 -150 -5 -152 -6 -182 -34 -28 -27 -29
-33 -33 -125 -3 -89 -6 -105 -40 -172 -35 -70 -59 -161 -73 -274 -4 -27 -11
-67 -17 -87 -10 -35 -9 -40 29 -90 65 -87 88 -121 115 -168 54 -94 95 -178
137 -277 24 -57 72 -153 108 -215 36 -62 72 -125 79 -139 8 -15 21 -32 29 -39
23 -19 19 -29 -33 -89 -55 -63 -75 -99 -104 -180 -20 -58 -58 -220 -58 -246 0
-13 95 -15 815 -15 l815 0 0 2300 0 2300 -2300 0 -2300 0 0 -2300z"/>
<path d="M2930 3789 c-65 -52 -219 -111 -415 -158 -71 -18 -195 -48 -275 -67
-162 -40 -205 -62 -286 -146 -95 -100 -224 -274 -224 -304 0 -14 8 -15 58 -8
141 22 231 -4 283 -81 13 -19 27 -35 30 -35 4 0 12 20 19 45 10 34 10 55 1 89
-18 73 -14 154 10 192 26 43 43 44 34 3 -7 -32 -7 -32 28 -26 19 3 54 14 78
25 24 11 93 29 152 41 106 21 187 52 187 71 0 5 14 17 32 26 31 16 34 16 73
-4 38 -20 109 -33 186 -35 49 -2 159 33 159 50 0 7 5 13 11 13 7 0 9 24 6 73
-8 114 -14 147 -33 170 -36 43 -78 87 -83 87 -4 0 -17 -9 -31 -21z"/>
<path d="M1525 2773 c-15 -32 -36 -87 -46 -123 -10 -35 -25 -78 -33 -95 -19
-41 -30 -115 -18 -115 6 0 12 5 14 11 2 7 12 9 23 5 13 -4 39 -44 69 -106 27
-55 62 -112 78 -126 27 -26 28 -27 47 -10 11 10 24 15 30 12 19 -12 35 39 35
114 0 105 -41 224 -99 290 -44 49 -61 94 -51 128 4 11 0 31 -8 46 l-14 27 -27
-58z"/>
<path d="M1530 1863 c-77 -26 -176 -111 -215 -185 -19 -37 -19 -38 0 -62 11
-14 54 -67 95 -118 70 -85 98 -124 125 -167 6 -9 29 -44 53 -79 71 -103 132
-194 132 -198 0 -2 16 -28 35 -58 36 -57 105 -193 105 -208 0 -5 14 -45 31
-89 32 -79 32 -79 68 -79 21 0 42 5 49 12 9 9 15 9 23 1 8 -8 22 -8 52 3 22 8
64 17 94 20 29 4 53 10 53 14 0 14 215 2 255 -14 51 -22 137 -86 235 -177 47
-44 100 -116 100 -136 0 -12 15 -32 34 -47 58 -44 80 -84 86 -154 3 -34 9 -61
15 -60 6 2 10 12 11 23 0 11 4 27 8 34 5 8 10 32 12 54 2 22 8 45 13 51 5 6
15 33 21 59 7 26 16 47 21 47 5 0 9 7 9 15 0 8 13 29 28 47 16 18 31 41 35 51
4 9 11 17 16 17 5 0 12 9 16 19 4 13 -17 57 -65 137 -92 153 -82 134 -130 249
-76 179 -203 409 -257 463 -7 8 -18 23 -24 34 -6 11 -12 18 -14 16 -2 -2 -15
-39 -29 -82 l-25 -78 43 -47 c166 -180 178 -220 201 -681 l5 -105 -31 55 c-66
115 -103 165 -197 264 -53 56 -113 121 -132 145 -19 23 -48 51 -65 61 -18 11
-41 42 -58 78 -30 62 -173 259 -242 334 -23 24 -52 63 -67 88 -52 89 -185 217
-373 356 -11 8 -32 24 -47 35 -16 11 -28 27 -28 35 0 14 -47 18 -80 7z"/>
<path d="M2585 1179 c-10 -42 17 -95 53 -102 41 -8 82 -68 82 -119 0 -48 16
-49 24 -3 10 50 -19 109 -92 186 -59 63 -60 64 -67 38z"/>
<path d="M2952 25 c0 -17 2 -22 5 -12 2 9 2 23 0 30 -3 6 -5 -1 -5 -18z"/>
</g>
</svg>
